<?xml version="1.0" standalone="no"?>
<!DOCTYPE svg PUBLIC "-//W3C//DTD SVG 20010904//EN"
 "http://www.w3.org/TR/2001/REC-SVG-20010904/DTD/svg10.dtd">
<svg version="1.0" xmlns="http://www.w3.org/2000/svg"
 width="448.000000pt" height="448.000000pt" viewBox="0 0 448.000000 448.000000"
 preserveAspectRatio="xMidYMid meet">
<metadata>
Created by potrace 1.11, written by Peter Selinger 2001-2013
</metadata>
<g transform="translate(0.000000,448.000000) scale(0.100000,-0.100000)"
fill="#000000" stroke="none">
<path d="M2192 4341 c-59 -15 -112 -59 -138 -114 -27 -58 -30 -100 -12 -161
13 -44 87 -126 113 -126 12 0 15 -18 15 -109 0 -120 -1 -121 -65 -121 -73 0
-274 -46 -380 -86 -7 -3 -24 24 -40 63 -16 37 -41 96 -56 130 l-28 62 -58 -26
c-32 -14 -61 -29 -65 -32 -4 -3 18 -62 48 -131 l54 -125 -22 -15 c-12 -8 -43
-27 -69 -43 l-48 -27 -41 55 c-22 30 -59 81 -82 113 -22 31 -42 59 -44 60 -4
5 -114 -79 -114 -87 0 -4 36 -56 79 -115 l80 -109 -102 -101 c-56 -56 -124
-134 -152 -174 -27 -39 -54 -70 -60 -69 -5 1 -50 24 -100 51 l-90 49 -1 47
c-6 182 -222 265 -360 138 -52 -48 -68 -91 -62 -169 6 -79 43 -134 118 -172
46 -24 63 -28 104 -23 26 3 64 15 83 26 l35 21 94 -53 c52 -29 94 -57 94 -61
0 -4 -11 -29 -24 -55 -31 -62 -79 -207 -101 -305 l-17 -77 -47 5 c-137 16
-225 24 -229 20 -4 -4 -21 -138 -18 -142 1 -1 53 -7 116 -13 176 -17 160 -7
160 -100 0 -76 -1 -80 -22 -81 -13 0 -75 -6 -138 -12 l-115 -12 3 -45 c2 -25
5 -58 8 -74 l6 -29 69 7 c38 3 99 9 137 12 l67 6 23 -98 c12 -55 43 -148 68
-209 25 -60 46 -116 47 -123 1 -8 -38 -37 -87 -66 l-90 -51 -45 22 c-47 24
-120 30 -164 14 -40 -16 -99 -73 -118 -116 -34 -74 -19 -176 34 -234 35 -38
95 -61 163 -61 53 0 68 4 110 33 59 40 94 101 94 167 0 42 3 48 32 63 18 9 60
32 93 51 l61 35 58 -79 c32 -44 102 -122 156 -174 l97 -94 -46 -64 c-26 -34
-63 -86 -84 -114 l-37 -52 55 -41 c30 -22 58 -41 62 -41 4 0 43 50 86 110 44
61 82 110 85 110 4 0 37 -17 73 -38 l66 -37 -53 -124 c-30 -69 -54 -128 -54
-132 0 -11 123 -60 131 -52 4 4 28 58 54 118 25 61 50 114 55 119 4 4 36 -1
72 -13 85 -28 227 -58 316 -67 l72 -7 -1 -106 0 -106 -47 -30 c-67 -43 -94
-99 -90 -186 5 -88 36 -137 113 -174 48 -24 64 -27 117 -22 114 10 188 92 188
209 0 88 -52 171 -120 193 -18 6 -20 15 -20 114 l0 108 73 7 c94 9 203 32 299
62 43 14 82 23 87 20 4 -3 30 -56 56 -118 27 -62 51 -117 55 -121 8 -9 130 41
130 54 0 4 -24 64 -53 132 l-54 123 69 38 c37 20 71 35 76 33 4 -3 41 -53 82
-111 41 -58 79 -105 83 -106 4 0 32 18 62 41 l55 41 -29 42 c-16 22 -54 74
-84 115 l-54 75 61 52 c65 55 173 179 221 251 l27 43 62 -36 c33 -19 75 -42
92 -51 28 -14 32 -22 37 -68 12 -119 90 -195 199 -195 135 0 222 84 222 215 0
117 -71 195 -184 203 -46 3 -69 0 -103 -17 -24 -11 -46 -21 -50 -21 -4 0 -47
23 -96 51 l-90 50 30 65 c41 92 86 231 101 310 l12 67 70 -6 c39 -4 103 -9
142 -13 l71 -7 7 67 c4 37 4 71 2 75 -3 4 -43 11 -88 15 -46 4 -106 9 -134 12
l-50 6 0 80 c1 89 -7 83 106 93 36 3 89 8 118 11 l54 7 -7 71 c-4 39 -8 72 -9
73 -1 1 -62 -4 -136 -12 -73 -8 -137 -12 -140 -10 -4 3 -10 26 -14 52 -9 67
-51 200 -92 293 -19 43 -34 83 -34 88 0 5 41 33 91 61 l90 52 33 -20 c79 -49
175 -35 247 38 90 89 91 209 4 297 -71 70 -185 83 -267 29 -51 -34 -91 -106
-92 -165 l-1 -48 -94 -53 -94 -53 -16 24 c-48 73 -110 145 -195 229 -56 54
-93 98 -89 105 4 6 40 57 81 114 41 56 72 105 70 108 -3 3 -29 23 -58 44 l-53
40 -85 -115 -84 -115 -56 31 c-87 49 -86 47 -59 110 14 30 38 86 55 126 l31
72 -56 26 c-30 14 -61 25 -68 25 -7 0 -36 -55 -65 -122 -29 -68 -53 -124 -54
-125 -1 -1 -38 9 -81 23 -91 29 -259 64 -310 64 -64 0 -65 1 -65 119 l0 107
34 17 c68 32 115 130 101 212 -19 122 -144 205 -263 176z m-32 -846 l0 -65 75
0 75 0 0 65 c0 61 1 65 23 65 53 0 219 -31 294 -55 l82 -25 -25 -56 c-13 -30
-24 -59 -24 -64 0 -9 102 -60 120 -60 4 0 19 27 34 60 l27 60 37 -19 c79 -41
80 -43 42 -92 -19 -24 -37 -49 -42 -55 -5 -7 11 -26 46 -53 31 -22 59 -41 63
-41 4 0 24 23 43 50 19 27 38 50 42 50 25 1 268 -265 268 -292 0 -4 -25 -21
-55 -38 -30 -17 -55 -34 -55 -36 0 -7 50 -94 63 -112 8 -10 14 -10 31 1 12 7
38 23 58 36 l37 22 21 -48 c51 -114 108 -312 96 -332 -3 -5 -30 -11 -61 -13
-30 -3 -57 -7 -60 -10 -3 -3 -3 -36 1 -73 l7 -67 69 4 68 5 0 -65 0 -65 -70 7
-70 7 0 -29 c0 -16 -3 -49 -6 -74 l-6 -45 63 -6 c34 -4 64 -9 67 -12 15 -15
-77 -312 -111 -359 -13 -17 -16 -16 -64 13 -28 17 -54 31 -59 31 -9 0 -74
-105 -74 -118 0 -4 25 -20 55 -37 30 -16 55 -32 55 -35 0 -25 -150 -206 -224
-270 -43 -38 -34 -42 -97 40 l-25 33 -57 -42 c-31 -24 -57 -45 -57 -48 0 -2
18 -28 40 -56 44 -58 44 -58 -33 -98 l-38 -20 -26 58 c-14 32 -27 60 -29 62
-7 8 -134 -45 -134 -55 0 -7 11 -36 25 -65 l25 -54 -53 -18 c-62 -21 -222 -53
-294 -60 l-53 -4 0 69 0 69 -72 -3 -73 -3 -3 -66 -3 -65 -71 8 c-88 9 -150 22
-246 50 -80 23 -80 22 -40 102 11 21 16 42 11 47 -4 4 -34 19 -66 34 l-58 25
-26 -60 c-15 -33 -30 -60 -35 -60 -16 0 -98 52 -98 62 0 5 16 30 35 55 19 25
35 49 35 53 0 14 -112 92 -119 83 -3 -6 -24 -33 -46 -62 l-39 -51 -89 87 c-84
84 -177 195 -177 213 0 5 25 23 55 40 61 35 61 26 7 118 -23 40 -26 42 -46 29
-11 -7 -38 -23 -58 -36 l-37 -22 -25 48 c-27 54 -81 226 -91 290 -7 47 -3 50
80 55 l40 3 -4 65 c-2 36 -5 68 -8 73 -2 4 -31 7 -63 7 -59 0 -59 0 -65 33 -4
19 -5 47 -3 63 l3 29 66 -3 c75 -4 79 -1 79 90 0 52 -3 55 -85 60 -36 3 -40 5
-37 28 8 61 37 163 74 257 l41 103 61 -35 62 -34 36 61 37 62 -57 34 c-31 19
-58 35 -60 37 -2 1 24 38 57 82 58 77 192 213 210 213 5 0 26 -23 46 -51 23
-31 43 -48 51 -45 23 9 103 70 104 79 0 5 -18 32 -39 60 l-40 52 52 32 c29 18
54 33 57 33 3 0 16 -27 30 -60 14 -33 29 -60 34 -60 10 0 126 51 126 56 0 2
-11 29 -25 60 -14 31 -23 60 -20 64 11 18 271 76 353 79 l32 1 0 -65z"/>
<path d="M2180 2850 c0 -140 -4 -220 -10 -220 -5 0 -10 -18 -10 -39 0 -22 -4
-43 -10 -46 -5 -3 -10 -26 -10 -51 l0 -44 88 0 c84 0 90 -1 182 -47 52 -27
110 -63 129 -80 20 -18 39 -33 44 -33 4 0 23 -16 41 -35 35 -36 56 -45 56 -22
0 8 11 24 25 37 14 13 25 28 25 33 0 12 215 227 227 227 5 0 22 14 38 30 16
17 33 30 37 30 13 0 68 42 68 52 0 4 -54 8 -120 8 -73 0 -120 -4 -120 -10 0
-17 -32 -11 -49 8 -9 10 -30 25 -47 32 -27 12 -33 21 -38 58 -3 25 -6 56 -6
71 0 14 -10 47 -22 73 -17 36 -29 48 -45 48 -13 0 -23 -4 -23 -10 0 -5 -9 -10
-21 -10 -23 0 -79 -30 -79 -42 0 -4 -6 -8 -13 -8 -7 0 -24 -11 -37 -23 -21
-20 -28 -22 -38 -10 -7 7 -21 13 -32 13 -10 0 -22 5 -25 10 -3 6 -17 10 -31
10 -17 0 -24 5 -24 20 0 11 -4 20 -9 20 -5 0 -11 8 -15 18 -8 24 -26 50 -63
91 -18 19 -33 41 -33 48 0 7 -7 13 -15 13 -13 0 -15 -31 -15 -220z m110 -50
c3 -3 9 -13 13 -22 7 -19 27 -25 27 -8 0 14 54 12 68 -2 7 -7 12 -22 12 -35 0
-36 31 -28 75 18 22 22 49 45 60 50 29 13 59 33 67 43 16 23 38 -17 38 -68 0
-29 5 -57 12 -64 9 -9 9 -15 0 -24 -16 -16 -16 -98 1 -98 6 0 25 7 41 15 33
17 52 8 67 -32 9 -24 52 -33 64 -13 3 6 15 10 25 10 12 0 -14 -33 -84 -102
-56 -57 -105 -111 -109 -120 -8 -23 -18 -23 -45 2 -12 11 -25 20 -30 20 -5 0
-19 11 -32 25 -13 14 -29 25 -37 25 -7 0 -13 5 -13 10 0 6 -9 10 -20 10 -11 0
-20 3 -20 8 0 10 -75 42 -100 42 -11 0 -20 5 -20 10 0 6 -15 10 -34 10 -19 0
-38 5 -41 10 -3 6 -15 10 -26 10 -17 0 -19 5 -13 58 4 31 10 61 15 67 5 5 9
54 10 110 0 84 2 95 11 70 6 -16 14 -32 18 -35z"/>
<path d="M2095 2400 c-3 -5 -17 -10 -31 -10 -13 0 -24 -4 -24 -10 0 -5 -11
-10 -24 -10 -13 0 -29 -7 -36 -15 -7 -8 -18 -15 -25 -15 -7 0 -23 -13 -36 -30
-22 -27 -29 -30 -86 -30 -36 0 -63 4 -63 10 0 6 -28 10 -64 10 -36 0 -68 -4
-71 -10 -3 -5 -18 -10 -32 -10 -62 0 -155 -73 -167 -132 -3 -17 -6 -75 -6
-129 0 -92 1 -99 20 -99 17 0 20 7 20 49 0 28 5 53 10 56 6 3 10 17 10 31 0
13 4 24 8 24 5 0 17 16 28 35 10 20 26 35 36 35 10 0 18 5 18 10 0 6 37 10 90
10 53 0 90 -4 90 -10 0 -6 40 -10 100 -10 62 0 100 4 100 10 0 14 68 82 98 98
13 6 35 12 48 12 12 0 26 5 29 10 3 6 21 10 40 10 19 0 37 -4 40 -10 3 -5 17
-10 30 -10 13 0 27 -4 30 -10 3 -5 13 -10 22 -10 16 0 84 -29 93 -40 7 -9 76
-40 89 -40 6 0 11 -4 11 -10 0 -5 9 -10 20 -10 11 0 20 -3 20 -8 0 -4 19 -15
43 -25 23 -10 54 -24 70 -30 15 -7 27 -15 27 -19 0 -5 11 -8 24 -8 14 0 27 -4
31 -9 7 -13 64 -41 82 -41 7 0 13 5 13 11 0 13 -25 39 -39 39 -5 0 -21 10 -34
23 -24 23 -51 42 -77 54 -8 4 -29 22 -48 40 -18 18 -37 33 -42 33 -6 0 -24 13
-41 30 -17 16 -40 32 -50 35 -11 4 -19 11 -19 16 0 5 -6 9 -13 9 -8 0 -22 9
-32 20 -10 11 -22 20 -28 20 -9 0 -67 24 -99 41 -10 5 -31 9 -47 9 -17 0 -33
5 -36 10 -3 6 -30 10 -60 10 -30 0 -57 -4 -60 -10z"/>
<path d="M2072 2218 c-7 -7 -12 -28 -12 -48 0 -39 13 -55 63 -80 24 -12 32
-12 50 -1 12 8 52 16 89 19 43 3 68 9 68 17 0 15 -42 55 -58 55 -7 0 -12 4
-12 10 0 5 -18 13 -40 16 -22 4 -43 11 -46 15 -8 13 -88 11 -102 -3z"/>
<path d="M1676 1941 c-3 -4 -31 -11 -62 -15 -52 -6 -83 -24 -84 -48 0 -5 23
-8 50 -8 28 0 50 5 50 10 0 6 14 10 30 10 17 0 30 -4 30 -10 0 -5 25 -10 55
-10 30 0 63 -4 73 -9 9 -5 33 -16 52 -25 63 -27 150 -136 150 -188 0 -9 5 -20
10 -23 6 -3 10 -19 10 -35 0 -16 5 -32 10 -35 6 -3 10 -22 10 -41 l0 -34 104
0 c70 0 107 4 112 12 4 6 2 14 -4 16 -7 2 -12 17 -12 33 0 16 -4 29 -10 29 -5
0 -10 9 -10 21 0 23 -30 79 -42 79 -4 0 -8 6 -8 13 0 7 -11 24 -25 39 -14 15
-25 31 -25 36 0 9 -46 52 -56 52 -2 0 -16 11 -30 25 -14 14 -31 25 -39 25 -8
0 -15 5 -15 10 0 6 -7 10 -15 10 -9 0 -25 9 -37 20 -13 12 -42 22 -80 26 -32
4 -61 11 -64 15 -7 12 -121 12 -128 0z"/>
<path d="M4473 185 c0 -38 2 -53 4 -32 2 20 2 52 0 70 -2 17 -4 1 -4 -38z"/>
</g>
</svg>
